<svg width="360" height="359" viewBox="0 0 360 359" fill="none" xmlns="http://www.w3.org/2000/svg">
<g clip-path="url(#clip0_685_8)">
<path d="M142.174 273.153C160.833 281.422 182.471 283.164 203.395 276.273C224.254 269.405 240.607 255.228 250.723 237.559C234.118 245.056 216.212 252.064 197.467 258.232C178.573 264.445 160.004 269.349 142.171 273.152L142.174 273.153Z" fill="#80D5CD"/>
<path d="M300.942 199.192C331.29 178.26 344.429 158.404 338.96 141.781C335.557 131.431 325.789 124.373 309.915 120.789C291.939 116.732 266.203 117.41 236.761 122.009C242.8 126.971 248.202 132.646 252.87 138.943C274.214 136.436 292.694 136.357 305.736 139.301C314.141 141.198 319.822 144.339 320.938 147.714C322.39 152.146 317.555 164.683 290.17 183.569C264.751 201.109 228.676 218.023 188.578 231.21C132.066 249.805 76.7702 257.577 47.7065 251.017C39.3017 249.119 33.6206 245.979 32.5062 242.594C31.0444 238.169 35.8852 225.643 63.271 206.757C68.9412 202.842 75.2215 198.977 81.8809 195.16C81.888 187.243 82.9289 179.443 84.8505 171.92C72.9326 178.131 62.0012 184.583 52.508 191.135C22.1518 212.064 9.01193 231.921 14.4922 248.535C17.8954 258.885 27.6639 265.944 43.5377 269.527C76.2106 276.903 134.075 269.128 194.52 249.233C236.281 235.489 274.077 217.717 300.944 199.191L300.942 199.192Z" fill="#FFD461"/>
<path d="M95.5871 221.831C97.9114 228.902 101.154 235.393 105.009 241.371C127.216 238.407 154.326 232.465 185.607 222.172C217.363 211.724 242.553 200.407 261.872 189.768C261.422 182.672 260.185 175.525 257.86 168.454C243.102 123.644 194.839 99.2762 150.035 113.997C105.224 128.764 80.8434 177.036 95.5863 221.832L95.5871 221.831Z" fill="#80D5CD"/>
</g>
<defs>
<clipPath id="clip0_685_8">
<rect width="300" height="300" fill="white" transform="translate(66.9861) rotate(12.7207)"/>
</clipPath>
</defs>
</svg>
